<svg width="13" height="32" viewBox="0 0 13 32" fill="none" xmlns="http://www.w3.org/2000/svg">
<path d="M2.88889 6.03914V24.4742C2.88889 24.4742 2.62022 28.3433 6.55922 28.3433C10.1111 28.3433 10.1111 24.4742 10.1111 24.4742V5.0856C10.1111 5.0856 10.1111 6.10352e-05 5.05556 6.10352e-05C0 6.10352e-05 0 5.0856 0 5.0856V24.4742C0 24.4742 0 31.7847 6.5 31.7847C13 31.7847 13 24.4742 13 24.4742V5.0856C13 4.29099 11.5556 4.29099 11.5556 5.0856V24.4742C11.5556 24.4742 12.0813 30.3399 6.5 30.3399C1.44444 30.3399 1.44444 24.4742 1.44444 24.4742V5.0856C1.44444 5.0856 1.44444 1.44482 5.05556 1.44482C8.66667 1.44482 8.66667 5.0856 8.66667 5.0856V24.4742C8.66667 24.4742 8.66667 26.7541 6.55922 26.7541C4.45182 26.7541 4.33333 24.4742 4.33333 24.4742V6.03914C4.33333 5.24453 2.88889 5.24453 2.88889 6.03914Z" fill="#86868A"/>
</svg>
