<svg width="179" height="29" viewBox="0 0 179 29" fill="none" xmlns="http://www.w3.org/2000/svg">
<path d="M0 0.665078L3.36784 27.8191H14.2908L25.4878 0.665078H16.2932L10.2862 18.1547L9.05723 0.665078H0.000213823H0ZM21.9371 23.9832C24.1222 26.3876 28.3547 28.4323 33.1792 28.4323C39.5955 28.4323 44.7391 24.8537 44.7391 17.8467C44.7391 12.9898 41.5992 11.6596 38.2301 10.5347C36.1364 9.81898 35.2728 9.40975 35.2728 8.43818C35.2728 7.4666 36.0914 7.1601 37.0475 7.1601C38.458 7.1601 41.0974 8.13168 42.6004 9.30727L46.5602 3.63069C44.693 1.63666 40.4604 0 36.4107 0C30.9943 0 25.1686 3.32419 25.1686 10.023C25.1686 14.9332 28.8093 16.6205 31.4498 17.4896C33.77 18.256 34.6347 18.4093 34.6811 19.5355C34.6811 20.3018 34.2705 20.9148 33.0429 20.9148C31.0394 20.9148 27.8993 19.2275 26.2149 17.9492L21.9373 23.9829L21.9371 23.9832ZM67.3583 19.1769C64.3546 20.1991 62.0794 20.8135 60.2135 20.8135C58.0285 20.8135 56.7995 19.33 56.7081 18.1026C67.8137 17.3869 71.3629 14.216 71.3629 8.59131C71.3629 3.47709 67.7223 0.0518439 61.5326 0.0518439C52.7947 0.0518439 46.969 7.05737 46.969 17.131C46.969 24.0352 50.6096 28.4323 57.4363 28.4323C61.5324 28.4323 64.9914 27.2567 68.1316 25.5173L67.3581 19.1769H67.3583ZM56.7081 12.5287C56.9358 9.61376 58.7105 7.1601 60.714 7.1601C62.0794 7.1601 62.7615 7.97855 62.7615 9.25662C62.7615 10.8414 61.5789 12.0689 56.7081 12.5287ZM72.5918 0.665078L75.9597 27.8191H86.8826L98.0796 0.665078H88.885L82.878 18.1547L81.649 0.665078H72.592H72.5918ZM99.7176 0.665078L95.6666 27.8191H104.906L107.591 9.9217C108.183 9.25662 109.32 8.43818 110.413 8.43818C111.824 8.43818 112.279 9.1539 111.869 11.813L109.503 27.8191H118.741L121.518 9.1539C122.383 3.22147 120.289 0.0518439 115.328 0.0518439C112.188 0.0518439 109.32 1.78979 107.682 3.47732L107.272 0.665078H99.7174H99.7176ZM145.366 0.665078H138.267L134.216 27.8191H143.455L145.867 11.6596C146.732 10.4841 148.234 9.56312 149.371 9.56312C150.419 9.56312 150.828 9.66585 151.876 9.9217L153.787 0.715724C153.103 0.30794 152.285 0.0520841 151.237 0.0520841C149.281 0.0520841 147.415 1.73938 145.958 4.03992L145.366 0.665078ZM174.949 27.8191L179 0.665078H169.807L167.076 18.8704C166.529 19.5355 165.3 20.2512 164.209 20.2512C162.797 20.2512 162.388 19.2796 162.661 17.3362L165.164 0.664841H155.879L153.058 19.4327C152.239 25.0572 154.424 28.4321 159.521 28.4321C162.661 28.4321 165.164 27.0006 166.94 24.7507L167.622 27.8188H174.949L174.949 27.8191Z" fill="#FEFEFE"/>
<path d="M122.111 23.2169C122.111 26.2346 123.932 28.4324 127.072 28.4324C130.122 28.4324 131.941 26.2346 131.941 23.2169C131.941 20.0461 130.03 18.0014 127.072 18.0014C124.068 18.0014 122.111 20.0461 122.111 23.2169Z" fill="#D74134"/>
</svg>
